<?xml version="1.0" encoding="UTF-8"?><svg id="Layer_2" xmlns="http://www.w3.org/2000/svg" xmlns:xlink="http://www.w3.org/1999/xlink" viewBox="0 0 718.69 622.41"><defs><linearGradient id="New_Gradient_Swatch_3" x1="0" y1="59.83" x2="103.62" y2="59.83" gradientUnits="userSpaceOnUse"><stop offset="0" stop-color="#f2f2f2"/><stop offset="1" stop-color="#e2e2e2"/></linearGradient><linearGradient id="New_Gradient_Swatch_2" x1="12.82" y1="59.83" x2="90.8" y2="59.83" gradientUnits="userSpaceOnUse"><stop offset="0" stop-color="#262626"/><stop offset="1" stop-color="#191817"/></linearGradient><symbol id="TinyHex" viewBox="0 0 103.62 119.65"><polygon points="103.62 89.74 103.62 29.91 51.81 0 0 29.91 0 89.74 51.81 119.65 103.62 89.74" style="fill:url(#New_Gradient_Swatch_3);"/><polygon points="90.8 82.34 90.8 37.31 51.81 14.8 12.82 37.31 12.82 82.34 51.81 104.85 90.8 82.34" style="fill:url(#New_Gradient_Swatch_2); stroke:#231f20; stroke-miterlimit:10; stroke-width:.13px;"/></symbol><linearGradient id="New_Gradient_Swatch_1" x1="48.14" y1="311.2" x2="670.55" y2="311.2" gradientTransform="translate(670.55 -48.14) rotate(90)" gradientUnits="userSpaceOnUse"><stop offset="0" stop-color="#f2d272"/><stop offset="1" stop-color="#e5b94c"/></linearGradient><linearGradient id="New_Gradient_Swatch_2-2" x1="97.72" y1="311.2" x2="620.98" y2="311.2" gradientTransform="translate(670.55 -48.14) rotate(90)" xlink:href="#New_Gradient_Swatch_2"/></defs><g id="Layer_1-2"><polygon points="179.67 622.41 539.02 622.41 718.69 311.2 539.02 0 179.67 0 0 311.2 179.67 622.41" style="fill:url(#New_Gradient_Swatch_1);"/><polygon points="208.3 572.83 510.4 572.83 661.45 311.2 510.4 49.57 208.3 49.57 57.24 311.2 208.3 572.83" style="fill:url(#New_Gradient_Swatch_2-2); stroke:#231f20; stroke-miterlimit:10; stroke-width:.88px;"/><use width="103.62" height="119.65" transform="translate(347.71 194.84) rotate(90) scale(2.24)" xlink:href="#TinyHex"/><use width="103.62" height="119.65" transform="translate(566.49 69.31) rotate(90) scale(2.24)" xlink:href="#TinyHex"/><use width="103.62" height="119.65" transform="translate(566.49 320.65) rotate(90) scale(2.24)" xlink:href="#TinyHex"/></g></svg>